#Comment line ignore any data following # character 
#Hierarchical Translation and Rotation (.htr) file 
[Header]	
#Header keywords are followed by a single value 
FileType HTR		#Single word string
DataType HTRS		#Translation followed by rotation and scale data
FileVersion 1		#integer
NumSegments 64		#integer
NumFrames 3		#integer
DataFrameRate 30		#integer, data frame rate in this file
EulerRotationOrder ZYX
CalibrationUnits mm
RotationUnits Degrees
GlobalAxisofGravity Y
BoneLengthAxis Y
ScaleFactor 1.00
[SegmentNames&Hierarchy]
#CHILD	PARENT
Pinger_Root GLOBAL
Pelvis Pinger_Root
L_Hip Pelvis
R_Hip Pelvis
Rear_Leg01 Pelvis
Spine1 Pelvis
L_Leg01 L_Hip
L_Leg02 L_Leg01
L_Leg03 L_Leg02
L_Foot L_Leg03
L_Toe1_01 L_Foot
L_Toe2_01 L_Foot
L_Toe3_01 L_Foot
planeAlignerLeft L_Foot
L_Toe1_02 L_Toe1_01
L_Toe1_03 L_Toe1_02
L_Toe2_02 L_Toe2_01
L_Toe2_03 L_Toe2_02
L_Toe3_02 L_Toe3_01
L_Toe3_03 L_Toe3_02
planeLockWeightLeft planeAlignerLeft
R_Leg01 R_Hip
R_Leg02 R_Leg01
R_Leg03 R_Leg02
R_Foot R_Leg03
planeAlignerRight R_Foot
R_Toe1_01 R_Foot
R_Toe2_01 R_Foot
R_Toe3_01 R_Foot
planeLockWeightRight planeAlignerRight
R_Toe1_02 R_Toe1_01
R_Toe1_03 R_Toe1_02
R_Toe2_02 R_Toe2_01
R_Toe2_03 R_Toe2_02
R_Toe3_02 R_Toe3_01
R_Toe3_03 R_Toe3_02
Rear_Leg02 Rear_Leg01
Rear_Leg03 Rear_Leg02
Rear_Leg04 Rear_Leg03
Rear_Foot Rear_Leg04
planeAlignerCenter Rear_Foot
Rear_Toe1_01 Rear_Foot
Rear_Toe2_01 Rear_Foot
Rear_Toe3_01 Rear_Foot
planeLockWeightCenter planeAlignerCenter
Rear_Toe1_02 Rear_Toe1_01
Rear_Toe1_03 Rear_Toe1_02
Rear_Toe2_02 Rear_Toe2_01
Rear_Toe2_03 Rear_Toe2_02
Rear_Toe3_02 Rear_Toe3_01
Rear_Toe3_03 Rear_Toe3_02
Back_Bone Spine1
Head Spine1
Motor_Bone Back_Bone
Ping_Mechanism Back_Bone
BN_LookIK Head
bottomMouth Head
L_Mouth01 Head
L_mouthFront Head
mouthGun Head
R_Mouth01 Head
R_mouthFront Head
TopMouth Head
weapon_bone Head
[BasePosition]
#SegmentName Tx, Ty, Tz, Rx, Ry, Rz, BoneLength
Pinger_Root 0.000000 0.000000 0.000000 -90.000000 0.000000 0.000000 10.000000 
Pelvis 0.000000 0.000000 0.000000 0.000000 0.000000 0.000000 10.000000 
L_Hip 0.000000 0.000000 0.000000 0.000000 0.000000 0.000000 10.000000 
R_Hip 0.000000 0.000000 0.000000 0.000000 0.000000 0.000000 10.000000 
Rear_Leg01 0.000000 0.000000 0.000000 0.000000 0.000000 0.000000 10.000000 
Spine1 0.000000 0.000000 0.000000 0.000000 0.000000 0.000000 10.000000 
L_Leg01 0.000000 0.000000 0.000000 0.000000 0.000000 0.000000 10.000000 
L_Leg02 0.000000 0.000000 0.000000 0.000000 0.000000 0.000000 10.000000 
L_Leg03 0.000000 0.000000 0.000000 0.000000 0.000000 0.000000 10.000000 
L_Foot 0.000000 0.000000 0.000000 0.000000 0.000000 0.000000 10.000000 
L_Toe1_01 0.000000 0.000000 0.000000 0.000000 0.000000 0.000000 10.000000 
L_Toe2_01 0.000000 0.000000 0.000000 0.000000 0.000000 0.000000 10.000000 
L_Toe3_01 0.000000 0.000000 0.000000 0.000000 0.000000 0.000000 10.000000 
planeAlignerLeft 0.000000 0.000000 0.000000 0.000000 0.000000 0.000000 10.000000 
L_Toe1_02 0.000000 0.000000 0.000000 0.000000 0.000000 0.000000 10.000000 
L_Toe1_03 0.000000 0.000000 0.000000 0.000000 0.000000 0.000000 10.000000 
L_Toe2_02 0.000000 0.000000 0.000000 0.000000 0.000000 0.000000 10.000000 
L_Toe2_03 0.000000 0.000000 0.000000 0.000000 0.000000 0.000000 10.000000 
L_Toe3_02 0.000000 0.000000 0.000000 0.000000 0.000000 0.000000 10.000000 
L_Toe3_03 0.000000 0.000000 0.000000 0.000000 0.000000 0.000000 10.000000 
planeLockWeightLeft 0.000000 0.000000 0.000000 0.000000 0.000000 0.000000 10.000000 
R_Leg01 0.000000 0.000000 0.000000 0.000000 0.000000 0.000000 10.000000 
R_Leg02 0.000000 0.000000 0.000000 0.000000 0.000000 0.000000 10.000000 
R_Leg03 0.000000 0.000000 0.000000 0.000000 0.000000 0.000000 10.000000 
R_Foot 0.000000 0.000000 0.000000 0.000000 0.000000 0.000000 10.000000 
planeAlignerRight 0.000000 0.000000 0.000000 0.000000 0.000000 0.000000 10.000000 
R_Toe1_01 0.000000 0.000000 0.000000 0.000000 0.000000 0.000000 10.000000 
R_Toe2_01 0.000000 0.000000 0.000000 0.000000 0.000000 0.000000 10.000000 
R_Toe3_01 0.000000 0.000000 0.000000 0.000000 0.000000 0.000000 10.000000 
planeLockWeightRight 0.000000 0.000000 0.000000 0.000000 0.000000 0.000000 10.000000 
R_Toe1_02 0.000000 0.000000 0.000000 0.000000 0.000000 0.000000 10.000000 
R_Toe1_03 0.000000 0.000000 0.000000 0.000000 0.000000 0.000000 10.000000 
R_Toe2_02 0.000000 0.000000 0.000000 0.000000 0.000000 0.000000 10.000000 
R_Toe2_03 0.000000 0.000000 0.000000 0.000000 0.000000 0.000000 10.000000 
R_Toe3_02 0.000000 0.000000 0.000000 0.000000 0.000000 0.000000 10.000000 
R_Toe3_03 0.000000 0.000000 0.000000 0.000000 0.000000 0.000000 10.000000 
Rear_Leg02 0.000000 0.000000 0.000000 0.000000 0.000000 0.000000 10.000000 
Rear_Leg03 0.000000 0.000000 0.000000 0.000000 0.000000 0.000000 10.000000 
Rear_Leg04 0.000000 0.000000 0.000000 0.000000 0.000000 0.000000 10.000000 
Rear_Foot 0.000000 0.000000 0.000000 0.000000 0.000000 0.000000 10.000000 
planeAlignerCenter 0.000000 0.000000 0.000000 0.000000 0.000000 0.000000 10.000000 
Rear_Toe1_01 0.000000 0.000000 0.000000 0.000000 0.000000 0.000000 10.000000 
Rear_Toe2_01 0.000000 0.000000 0.000000 0.000000 0.000000 0.000000 10.000000 
Rear_Toe3_01 0.000000 0.000000 0.000000 0.000000 0.000000 0.000000 10.000000 
planeLockWeightCenter 0.000000 0.000000 0.000000 0.000000 0.000000 0.000000 10.000000 
Rear_Toe1_02 0.000000 0.000000 0.000000 0.000000 0.000000 0.000000 10.000000 
Rear_Toe1_03 0.000000 0.000000 0.000000 0.000000 0.000000 0.000000 10.000000 
Rear_Toe2_02 0.000000 0.000000 0.000000 0.000000 0.000000 0.000000 10.000000 
Rear_Toe2_03 0.000000 0.000000 0.000000 0.000000 0.000000 0.000000 10.000000 
Rear_Toe3_02 0.000000 0.000000 0.000000 0.000000 0.000000 0.000000 10.000000 
Rear_Toe3_03 0.000000 0.000000 0.000000 0.000000 0.000000 0.000000 10.000000 
Back_Bone 0.000000 0.000000 0.000000 0.000000 0.000000 0.000000 10.000000 
Head 0.000000 0.000000 0.000000 0.000000 0.000000 0.000000 10.000000 
Motor_Bone 0.000000 0.000000 0.000000 0.000000 0.000000 0.000000 10.000000 
Ping_Mechanism 0.000000 0.000000 0.000000 0.000000 0.000000 0.000000 10.000000 
BN_LookIK 0.000000 0.000000 0.000000 0.000000 0.000000 0.000000 10.000000 
bottomMouth 0.000000 0.000000 0.000000 0.000000 0.000000 0.000000 10.000000 
L_Mouth01 0.000000 0.000000 0.000000 0.000000 0.000000 0.000000 10.000000 
L_mouthFront 0.000000 0.000000 0.000000 0.000000 0.000000 0.000000 10.000000 
mouthGun 0.000000 0.000000 0.000000 0.000000 0.000000 0.000000 10.000000 
R_Mouth01 0.000000 0.000000 0.000000 0.000000 0.000000 0.000000 10.000000 
R_mouthFront 0.000000 0.000000 0.000000 0.000000 0.000000 0.000000 10.000000 
TopMouth 0.000000 0.000000 0.000000 0.000000 0.000000 0.000000 10.000000 
weapon_bone 0.000000 0.000000 0.000000 0.000000 0.000000 0.000000 10.000000 
#Beginning of Data. Separated by tabs
#Fr	Tx	Ty	Tz	Rx	Ry	Rz	SF
[Pinger_Root]
42 5314.812500 0.000000 0.000000 -0.000075 -0.000000 -0.000020 5314.812500
43 5444.442383 0.000000 0.000000 -0.000075 -0.000000 -0.000020 5444.442383
44 5574.071777 0.000000 0.000000 -0.000075 -0.000000 -0.000020 5574.071777
[Pelvis]
42 396.530762 -480.877106 5124.864258 -105.677582 -76.092064 73.161003 5162.626465
43 421.604736 -489.698822 5065.437500 -107.577507 -73.319191 72.016716 5106.486816
44 447.967590 -508.802368 5013.690918 -109.758522 -71.315178 71.379112 5059.313477
[L_Hip]
42 5.766392 125.831482 872.656799 -178.250168 -81.786369 87.376007 881.701050
43 5.766392 125.831482 872.656799 -178.250168 -81.786369 87.376007 881.701050
44 5.766392 125.831482 872.656799 -178.250168 -81.786369 87.376007 881.701050
[R_Hip]
42 5.765438 125.836372 -872.654907 -1.748770 81.786041 87.376961 881.699829
43 5.765438 125.836372 -872.654907 -1.748770 81.786041 87.376961 881.699829
44 5.765438 125.836372 -872.654907 -1.748770 81.786041 87.376961 881.699829
[Rear_Leg01]
42 -192.298416 -925.602966 -0.001907 -175.442947 -42.302666 171.459259 945.367432
43 -192.298416 -925.602966 -0.001907 179.002777 -44.036613 173.509918 945.367432
44 -192.298416 -925.602966 -0.001907 173.361542 -45.527573 176.531570 945.367432
[Spine1]
42 290.604584 5.007505 0.000477 18.663181 -7.513278 16.291950 290.647736
43 290.604584 5.007505 0.000477 22.035761 -7.519493 12.342751 290.647736
44 290.604584 5.007505 0.000477 25.208288 -7.297491 9.245217 290.647736
[L_Leg01]
42 761.932007 -0.002384 -0.069261 80.863411 -73.992355 -94.084106 761.932068
43 761.932007 -0.002384 -0.069261 67.893089 -71.572411 -85.041695 761.932068
44 761.932007 -0.002384 -0.069261 34.915771 -73.764053 -54.321835 761.932068
[L_Leg02]
42 1441.140503 -0.000954 -0.000715 0.207582 -0.021614 -112.558693 1441.140503
43 1441.140503 -0.000954 -0.000715 -1.443049 0.452299 -98.437096 1441.140503
44 1441.140503 -0.000954 -0.000715 -1.248541 0.866022 -86.206932 1441.140503
[L_Leg03]
42 1686.963989 -0.000715 -0.000954 -0.004562 0.000882 111.893639 1686.963989
43 1686.963989 -0.000715 -0.000954 0.026221 -0.006648 103.601295 1686.963989
44 1686.963989 -0.000715 -0.000954 0.115715 -0.010219 79.278877 1686.963989
[L_Foot]
42 3041.570068 -30.715107 11.297464 29.875910 7.085498 54.206223 3041.746094
43 3041.570068 -30.715107 11.297464 26.219744 6.350276 46.409966 3041.746094
44 3041.570068 -30.715107 11.297464 19.903450 5.414375 41.407936 3041.746094
[L_Toe1_01]
42 -188.216690 -224.732346 -21.137953 88.699852 -1.784209 -139.676910 293.899567
43 -188.216690 -224.732346 -21.137953 89.041458 -2.032872 -151.330872 293.899567
44 -188.216690 -224.732346 -21.137953 89.226906 -2.122469 -157.877808 293.899567
[L_Toe2_01]
42 200.746536 -219.926590 148.838394 -73.929466 -3.614537 -71.727211 332.896027
43 200.746536 -219.926590 148.838394 -75.304573 -6.637354 -61.259789 332.896027
44 200.746536 -219.926590 148.838394 -76.712166 -8.894033 -53.170143 332.896027
[L_Toe3_01]
42 188.832520 -219.859131 -191.078659 -110.448715 4.310087 -72.807045 347.140900
43 188.832520 -219.859131 -191.078659 -108.811089 8.107385 -62.691303 347.140900
44 188.832520 -219.859131 -191.078659 -107.229095 10.823030 -55.313118 347.140900
[planeAlignerLeft]
42 136.250763 -757.695984 -10.996696 0.000000 -90.000000 -90.001900 769.927490
43 130.437408 -752.331421 -6.887880 0.000000 -90.000000 -90.001900 763.586243
44 113.328804 -749.302002 -0.009260 0.000000 -90.000000 -90.001900 757.823792
[L_Toe1_02]
42 413.761139 0.000477 0.000000 0.001479 -15.076690 0.001479 413.761139
43 413.761139 0.000477 0.000000 0.001460 -16.974566 0.001460 413.761139
44 413.761139 0.000477 0.000000 0.001424 -20.961039 0.001424 413.761139
[L_Toe1_03]
42 464.317322 0.000358 -0.000089 -179.997635 74.038864 -179.994095 464.317322
43 464.317322 0.000358 -0.000089 -179.995392 79.651360 -179.991882 464.317322
44 464.317322 0.000358 -0.000089 0.043953 86.939957 0.043953 464.317322
[L_Toe2_02]
42 342.235809 -0.000477 0.000238 0.001181 -77.443008 0.001181 342.235809
43 342.235809 -0.000477 0.000238 0.001185 -74.388252 0.001185 342.235809
44 342.235809 -0.000477 0.000238 -0.008632 -64.891273 0.007454 342.235809
[L_Toe2_03]
42 420.210846 -0.000715 0.000000 -179.996078 78.407707 -179.992554 420.210846
43 420.210846 -0.000715 0.000000 -179.929779 89.084862 -179.926285 420.210846
44 420.210846 -0.000715 0.000000 -0.001414 69.250771 -0.004969 420.210846
[L_Toe3_02]
42 329.270111 0.000954 0.000000 0.001177 -81.149315 0.001177 329.270111
43 329.270111 0.000954 0.000000 0.001180 -78.454552 0.001180 329.270111
44 329.270111 0.000954 0.000000 -0.010873 -70.434761 0.009706 329.270111
[L_Toe3_03]
42 439.137451 -0.001907 0.000954 -179.997086 75.908730 -179.993561 439.137451
43 439.137451 -0.001907 0.000954 -179.986069 85.800072 -179.982559 439.137451
44 439.137451 -0.001907 0.000954 -0.002458 74.355438 -0.005988 439.137451
[planeLockWeightLeft]
42 647.995972 0.098572 0.076065 -0.011826 -0.004376 0.005620 647.995972
43 895.995361 0.098267 0.076218 -0.011826 -0.004376 0.005620 895.995361
44 999.998413 0.097961 0.076380 -0.011826 -0.004376 0.005620 999.998413
[R_Leg01]
42 761.455627 -0.001907 -0.000358 131.545700 -8.821945 76.326965 761.455688
43 761.455627 -0.001907 -0.000358 129.935608 -15.108262 76.154442 761.455688
44 761.455627 -0.001907 -0.000358 128.282532 -20.662172 76.478180 761.455688
[R_Leg02]
42 1441.140625 0.000000 -0.000238 0.199417 0.001812 -94.399689 1441.140625
43 1441.140625 0.000000 -0.000238 0.195254 -0.023175 -100.423477 1441.140625
44 1441.140625 0.000000 -0.000238 0.188054 -0.033233 -105.506042 1441.140625
[R_Leg03]
42 1686.963989 0.000954 0.001431 -0.031799 0.010106 101.048637 1686.963989
43 1686.963989 0.000954 0.001431 -0.031724 0.010340 101.891846 1686.963989
44 1686.963989 0.000954 0.001431 -0.031754 0.010248 101.559929 1686.963989
[R_Foot]
42 3041.560059 -30.531288 -11.204481 14.807521 -5.875286 74.752876 3041.734131
43 3041.560059 -30.531288 -11.204481 13.382310 -5.707220 77.453331 3041.734131
44 3041.560059 -30.531288 -11.204481 11.967118 -5.472608 80.147835 3041.734131
[planeAlignerRight]
42 7.907796 -776.266541 3.269076 0.000000 -89.960434 -90.005180 776.313660
43 3.527288 -795.107544 1.548183 0.000000 -89.960434 -90.005180 795.116882
44 0.557907 -807.594849 0.419329 0.000000 -89.960434 -90.005180 807.595093
[R_Toe1_01]
42 -188.383347 -224.864899 21.052242 90.956772 1.728817 -152.632660 294.101532
43 -188.383347 -224.864899 21.052242 91.019226 1.776732 -150.849243 294.101532
44 -188.383347 -224.864899 21.052242 91.035774 1.802672 -149.632629 294.101532
[R_Toe2_01]
42 200.637817 -220.002121 -148.787384 -104.213295 9.613291 -56.000462 332.857574
43 200.637817 -220.002121 -148.787384 -104.516724 9.432468 -57.435581 332.857574
44 200.637817 -220.002121 -148.787384 -104.684891 9.328128 -58.270954 332.857574
[R_Toe3_01]
42 188.606735 -220.092957 191.126343 -71.399811 -12.118922 -58.014412 347.192566
43 188.606735 -220.092957 191.126343 -71.116776 -11.658657 -59.408527 347.192566
44 188.606735 -220.092957 191.126343 -70.943687 -11.384103 -60.223930 347.192566
[planeLockWeightRight]
42 999.999329 0.000063 0.076146 -0.011823 -0.004379 -0.000027 999.999329
43 999.999329 0.000105 0.076155 -0.011823 -0.004379 -0.000027 999.999329
44 999.999329 0.000147 0.076164 -0.011823 -0.004379 -0.000027 999.999329
[R_Toe1_02]
42 413.762085 0.000477 -0.000119 0.001394 -24.679718 0.001394 413.762085
43 413.762085 0.000477 -0.000119 0.001392 -24.931355 0.001392 413.762085
44 413.762085 0.000477 -0.000119 0.001390 -25.182983 0.001390 413.762085
[R_Toe1_03]
42 464.317810 0.000000 0.001088 0.006591 69.485031 0.006591 464.317810
43 464.317810 0.000000 0.001088 0.005781 66.573265 0.005781 464.317810
44 464.317810 0.000000 0.001088 0.005323 64.526245 0.005323 464.317810
[R_Toe2_02]
42 342.234741 -0.000954 0.000238 0.000480 -71.618950 0.000480 342.234741
43 342.234741 -0.000954 0.000238 0.001190 -70.822556 0.001190 342.234741
44 342.234741 -0.000954 0.000238 0.001191 -70.474388 0.001191 342.234741
[R_Toe2_03]
42 420.210846 0.000715 -0.000268 0.020225 83.346687 0.020225 420.210846
43 420.210846 0.000715 -0.000268 0.015908 81.538422 0.015908 420.210846
44 420.210846 0.000715 -0.000268 0.013877 80.296959 0.013877 420.210846
[R_Toe3_02]
42 329.270355 -0.000477 -0.000954 0.001183 -75.861862 0.001183 329.270355
43 329.270355 -0.000477 -0.000954 0.001183 -75.209953 0.001183 329.270355
44 329.270355 -0.000477 -0.000954 0.001184 -74.935799 0.001184 329.270355
[R_Toe3_03]
42 439.137939 0.000238 0.001431 -0.020966 86.572174 -0.017468 439.137939
43 439.137939 0.000238 0.001431 -0.015085 85.059692 -0.011585 439.137939
44 439.137939 0.000238 0.001431 -0.012764 84.017059 -0.009262 439.137939
[Rear_Leg02]
42 1162.777710 -0.029802 0.005960 0.238660 0.209415 -54.888062 1162.777710
43 1162.777710 -0.029802 0.005960 -0.958922 -1.198865 -51.267563 1162.777710
44 1162.777710 -0.029802 0.005960 -2.438963 -2.573946 -46.632889 1162.777710
[Rear_Leg03]
42 607.192505 -0.013351 -0.073195 0.003919 0.005571 42.036755 607.192505
43 607.192505 -0.013351 -0.073195 0.003848 0.005619 40.593876 607.192505
44 607.192505 -0.013351 -0.073195 0.003747 0.005687 38.554527 607.192505
[Rear_Leg04]
42 995.874512 -0.020504 -0.011921 -0.030975 -0.012431 22.051916 995.874573
43 995.874512 -0.020504 -0.011921 -0.030745 -0.012964 20.059834 995.874573
44 995.874512 -0.020504 -0.011921 -0.029692 -0.008773 17.448187 995.874573
[Rear_Foot]
42 3096.176270 -0.067472 -0.041425 179.559097 52.367634 0.104674 3096.176270
43 3096.176270 -0.067472 -0.041425 -177.425751 51.042809 3.970058 3096.176270
44 3096.176270 -0.067472 -0.041425 -174.641403 49.598541 7.611934 3096.176270
[planeAlignerCenter]
42 0.498619 110.132469 -778.944336 0.000009 0.000003 -179.999985 786.691589
43 0.494080 114.424141 -797.058228 0.000009 0.000003 -179.999985 805.229736
44 0.488739 116.611671 -808.991211 0.000009 0.000003 -179.999985 817.352600
[Rear_Toe1_01]
42 0.653352 83.966492 -371.173737 0.062589 28.251461 90.033661 380.553192
43 0.653352 83.966492 -371.173737 0.061536 29.671316 90.031944 380.553192
44 0.653352 83.966492 -371.173737 0.051613 30.544081 90.034065 380.553192
[Rear_Toe2_01]
42 178.200760 -294.826019 -362.060547 1.781788 52.043385 -68.676949 499.765686
43 178.200760 -294.826019 -362.060547 1.954382 53.365738 -68.481148 499.765686
44 178.200760 -294.826019 -362.060547 2.054483 54.208065 -68.371284 499.765686
[Rear_Toe3_01]
42 -153.359680 -308.780914 -362.060852 -2.150181 52.038479 -113.962700 499.952881
43 -153.359680 -308.780914 -362.060852 -2.345699 53.357681 -114.181709 499.952881
44 -153.359680 -308.780914 -362.060852 -2.466841 54.192524 -114.309898 499.952881
[planeLockWeightCenter]
42 1000.000000 0.000165 0.076541 -0.011814 -0.004373 -0.000015 1000.000000
43 1000.000000 0.000161 0.076554 -0.011814 -0.004373 -0.000015 1000.000000
44 1000.000000 0.000157 0.076567 -0.011814 -0.004373 -0.000015 1000.000000
[Rear_Toe1_02]
42 379.707825 0.194073 0.000477 -0.000767 -33.624729 0.000838 379.707855
43 379.707825 0.194073 0.000477 -0.000767 -33.624729 0.000838 379.707855
44 379.707825 0.194073 0.000477 -0.000767 -33.624729 0.000838 379.707855
[Rear_Toe1_03]
42 500.129700 0.165701 0.000119 -0.001630 58.310295 0.003824 500.129761
43 500.129700 0.165701 0.000119 0.000290 55.444416 0.007613 500.129761
44 500.129700 0.165701 0.000119 0.000059 53.442177 0.007424 500.129761
[Rear_Toe2_02]
42 340.494507 0.000238 -0.000954 0.001175 -84.630310 0.001175 340.494507
43 340.494507 0.000238 -0.000954 0.001175 -84.185196 0.001175 340.494507
44 340.494507 0.000238 -0.000954 0.001175 -83.740067 0.001175 340.494507
[Rear_Toe2_03]
42 433.103577 0.000000 0.000238 179.982803 82.168976 179.982803 433.103546
43 433.103577 0.000000 0.000238 179.979691 83.373123 179.979691 433.103546
44 433.103577 0.000000 0.000238 179.976578 84.256935 179.976578 433.103546
[Rear_Toe3_02]
42 340.494141 -0.000358 -0.000477 0.001175 -84.498863 0.001175 340.494171
43 340.494141 -0.000358 -0.000477 0.001175 -84.049782 0.001175 340.494171
44 340.494141 -0.000358 -0.000477 0.001175 -83.600700 0.001175 340.494171
[Rear_Toe3_03]
42 433.103577 0.001431 -0.000238 -179.992966 82.500900 -179.989456 433.103546
43 433.103577 0.001431 -0.000238 -179.991272 83.711288 -179.987762 433.103546
44 433.103577 0.001431 -0.000238 -179.989548 84.604134 -179.986053 433.103546
[Back_Bone]
42 1312.175781 -701.934692 0.000954 1.019727 3.184313 -80.531158 1488.125488
43 1312.175781 -701.934692 0.000954 0.692627 3.184909 -80.348091 1488.125488
44 1312.175781 -701.934692 0.000954 0.365533 3.186547 -80.165024 1488.125488
[Head]
42 1406.159424 809.709290 0.001431 11.145711 -4.847085 3.065207 1622.625488
43 1406.159424 809.709290 0.001431 10.827642 -4.601732 3.745150 1622.625488
44 1406.159424 809.709290 0.001431 10.512616 -4.352639 4.423476 1622.625488
[Motor_Bone]
42 1158.364380 -417.834747 0.000477 1.113721 -1.125686 -107.115891 1231.419434
43 1158.364380 -417.834747 0.000477 -1.034866 -1.069922 -107.053192 1231.419434
44 1158.364380 -417.834747 0.000477 -2.188870 -0.972377 -106.959076 1231.419434
[Ping_Mechanism]
42 1272.938110 -470.778717 8.648016 0.000103 -0.000053 82.120995 1357.232056
43 1286.715698 -476.927399 12.277777 0.000103 -0.000053 82.120995 1372.314819
44 1296.349976 -479.522675 15.165361 0.000103 -0.000053 82.120995 1382.279053
[BN_LookIK]
42 193.241119 1380.371704 -0.002861 0.000000 89.965736 -31.038179 1393.832153
43 193.241119 1380.371704 -0.002861 0.000000 89.965736 -31.038179 1393.832153
44 193.241119 1380.371704 -0.002861 0.000000 89.965736 -31.038179 1393.832153
[bottomMouth]
42 -435.092926 615.759399 -0.000954 -0.000022 0.000016 73.527184 753.966492
43 -435.092926 615.759399 -0.000954 -0.000022 0.000016 73.527184 753.966492
44 -435.092926 615.759399 -0.000954 -0.000022 0.000016 73.527184 753.966492
[L_Mouth01]
42 554.440979 7.658243 838.222046 150.204178 23.759130 109.605339 1005.027161
43 554.440979 7.658243 838.222046 150.204178 23.759130 109.605339 1005.027161
44 554.440979 7.658243 838.222046 150.204178 23.759130 109.605339 1005.027161
[L_mouthFront]
42 551.629089 934.514771 339.150421 0.000081 2.804060 79.119301 1136.941284
43 551.629089 934.514771 339.150421 0.000081 2.804060 79.119301 1136.941284
44 551.629089 934.514771 339.150421 0.000081 2.804060 79.119301 1136.941284
[mouthGun]
42 55.332661 1627.420898 0.000000 0.000023 0.000009 -11.038128 1628.361328
43 55.332661 1627.420898 0.000000 0.000023 0.000009 -11.038128 1628.361328
44 55.332661 1627.420898 0.000000 0.000023 0.000009 -11.038128 1628.361328
[R_Mouth01]
42 554.442383 7.659197 -838.223938 29.795891 -23.759109 109.605331 1005.029541
43 554.442383 7.659197 -838.223938 29.795891 -23.759109 109.605331 1005.029541
44 554.442383 7.659197 -838.223938 29.795891 -23.759109 109.605331 1005.029541
[R_mouthFront]
42 551.629089 934.514282 -339.151367 0.000029 -2.803930 79.119133 1136.941162
43 551.629089 934.514282 -339.151367 0.000029 -2.803930 79.119133 1136.941162
44 551.629089 934.514282 -339.151367 0.000029 -2.803930 79.119133 1136.941162
[TopMouth]
42 461.269867 -56.106091 -0.008583 -0.000059 -0.000268 92.025169 464.669525
43 461.269867 -56.106091 -0.008583 -0.000059 -0.000268 92.025169 464.669525
44 461.269867 -56.106091 -0.008583 -0.000059 -0.000268 92.025169 464.669525
[weapon_bone]
42 -987.239868 1448.372803 0.001431 0.000000 89.965736 -31.038221 1752.833740
43 -987.239868 1448.372803 0.001431 0.000000 89.965736 -31.038221 1752.833740
44 -987.239868 1448.372803 0.001431 0.000000 89.965736 -31.038221 1752.833740
